<svg width="81" height="81" fill="none" xmlns="http://www.w3.org/2000/svg"><path fill-rule="evenodd" clip-rule="evenodd" d="M71.708 36.042a8.917 8.917 0 0 1 8.895 8.248l.022.668v26.75a8.917 8.917 0 0 1-8.248 8.895l-.669.022H53.875a8.917 8.917 0 0 1-8.894-8.248l-.023-.669v-26.75a8.917 8.917 0 0 1 8.248-8.894l.669-.022h17.833ZM27.125 53.875a8.917 8.917 0 0 1 8.917 8.917v8.916a8.917 8.917 0 0 1-8.917 8.917H9.292a8.917 8.917 0 0 1-8.917-8.917v-8.916a8.917 8.917 0 0 1 8.917-8.917h17.833Zm0-53.5a8.917 8.917 0 0 1 8.917 8.917v26.75a8.917 8.917 0 0 1-8.917 8.916H9.292a8.917 8.917 0 0 1-8.917-8.916V9.292A8.917 8.917 0 0 1 9.292.375h17.833Zm44.583 0a8.917 8.917 0 0 1 8.917 8.917v8.916a8.917 8.917 0 0 1-8.917 8.917H53.875a8.917 8.917 0 0 1-8.917-8.917V9.292A8.917 8.917 0 0 1 53.875.375h17.833Z" fill="#fff"/></svg>